<?xml version="1.0" standalone="no"?>
<!DOCTYPE svg PUBLIC "-//W3C//DTD SVG 20010904//EN"
 "http://www.w3.org/TR/2001/REC-SVG-20010904/DTD/svg10.dtd">
<svg version="1.0" xmlns="http://www.w3.org/2000/svg"
 width="3464.000000pt" height="3464.000000pt" viewBox="0 0 3464.000000 3464.000000"
 preserveAspectRatio="xMidYMid meet">

<g transform="translate(0.000000,3464.000000) scale(0.100000,-0.100000)"
fill="#000000" stroke="none">
<path d="M28295 19920 c-3 -5 -18 -11 -34 -15 -16 -3 -39 -15 -51 -25 -53 -46
-50 140 -50 -3351 0 -2164 -3 -3240 -10 -3244 -6 -3 -16 0 -23 7 -75 75 -226
181 -317 224 -25 12 -60 29 -79 38 -19 9 -40 16 -48 16 -7 0 -13 5 -13 10 0 6
-11 10 -23 10 -13 0 -27 3 -31 7 -4 5 -31 14 -59 21 -29 7 -70 18 -92 23 -75
19 -140 31 -200 35 -33 3 -69 9 -80 15 -36 17 -539 -2 -559 -22 -6 -5 -31 -9
-57 -9 -26 0 -50 -4 -53 -9 -3 -4 -25 -11 -48 -14 -24 -4 -72 -13 -108 -22
-36 -9 -80 -19 -97 -22 -18 -3 -33 -9 -33 -14 0 -5 -10 -9 -23 -9 -13 0 -27
-4 -33 -8 -5 -4 -27 -14 -49 -21 -22 -7 -58 -19 -80 -28 -22 -8 -49 -19 -60
-23 -11 -4 -54 -24 -96 -44 -41 -20 -81 -36 -87 -36 -7 0 -12 -4 -12 -10 0 -5
-9 -10 -20 -10 -11 0 -20 -4 -20 -8 0 -5 -16 -14 -35 -22 -19 -8 -35 -17 -35
-20 0 -4 -12 -12 -27 -19 -36 -16 -187 -114 -191 -123 -2 -5 -10 -8 -18 -8 -8
0 -14 -3 -14 -7 0 -5 -17 -19 -38 -33 -20 -14 -42 -29 -48 -35 -6 -5 -36 -30
-65 -55 -72 -60 -244 -233 -294 -295 -22 -28 -45 -56 -52 -63 -48 -50 -178
-269 -218 -367 -32 -77 -38 -90 -45 -110 -4 -11 -12 -31 -18 -45 -5 -14 -17
-63 -26 -110 -10 -47 -21 -107 -27 -133 -12 -62 -12 -236 0 -290 5 -23 18 -81
28 -129 9 -49 21 -88 25 -88 5 0 8 -11 8 -25 0 -14 5 -25 10 -25 6 0 10 -6 10
-14 0 -14 85 -172 101 -186 3 -3 18 -23 35 -45 124 -168 377 -340 604 -410 30
-10 63 -21 72 -26 10 -5 29 -9 42 -9 14 0 28 -4 31 -10 3 -5 22 -10 41 -10 19
0 42 -4 52 -10 17 -9 314 -42 387 -42 75 -1 410 33 427 42 10 6 36 10 57 10
22 0 43 5 46 10 3 6 21 10 40 10 19 0 37 5 40 10 3 6 16 10 27 10 24 0 124 27
150 41 10 5 25 9 33 9 8 0 23 4 33 9 19 10 36 17 137 56 84 33 299 137 303
148 2 4 8 7 13 7 5 0 33 16 63 35 30 19 60 35 66 35 5 0 10 5 10 10 0 6 7 10
15 10 8 0 15 4 15 8 0 4 22 21 50 37 27 17 50 33 50 38 0 4 5 7 11 7 7 0 19 8
28 18 9 9 34 30 55 46 122 91 315 289 401 411 27 39 53 72 57 73 4 2 8 8 8 13
0 6 5 15 10 22 17 20 80 129 80 138 0 5 5 9 10 9 6 0 10 5 10 12 0 6 12 36 26
67 14 31 31 67 36 81 6 14 14 33 19 42 5 10 9 27 9 37 0 11 5 23 10 26 6 3 10
21 10 39 0 17 4 36 9 42 31 32 35 250 41 2408 3 1549 8 2160 16 2163 6 2 42
-58 80 -134 38 -76 71 -140 74 -143 11 -10 80 -132 80 -140 0 -5 4 -10 9 -12
4 -1 30 -37 56 -78 26 -41 51 -77 54 -80 4 -3 24 -30 46 -60 101 -141 197
-250 399 -454 92 -94 205 -211 250 -261 44 -49 88 -97 96 -105 9 -8 34 -37 55
-65 22 -27 47 -57 55 -65 8 -8 28 -33 45 -55 16 -22 32 -42 35 -45 4 -3 33
-43 65 -90 32 -47 62 -86 67 -88 4 -2 8 -7 8 -12 0 -8 62 -116 77 -135 9 -10
77 -150 95 -195 6 -14 14 -33 19 -42 5 -10 9 -27 9 -38 0 -11 4 -20 9 -20 9 0
13 -16 29 -125 20 -126 57 -165 157 -165 30 0 55 5 55 10 0 6 5 10 11 10 16 0
38 26 54 64 13 30 15 161 14 883 0 752 -2 859 -17 945 -10 53 -21 100 -25 104
-4 4 -7 18 -7 30 0 13 -4 26 -10 29 -5 3 -10 15 -10 26 0 19 -4 28 -28 76 -7
13 -12 27 -12 33 0 12 -67 152 -120 248 -38 71 -188 302 -228 352 -11 14 -60
75 -107 135 -108 136 -204 242 -411 450 -88 90 -187 194 -220 231 -32 38 -67
78 -77 89 -11 11 -40 49 -65 85 -26 36 -52 71 -59 78 -23 24 -163 238 -163
249 0 6 -3 13 -7 15 -9 4 -51 78 -95 168 -18 36 -35 67 -38 70 -9 8 -60 133
-60 148 0 6 -4 12 -10 12 -5 0 -10 7 -10 15 0 8 -4 23 -9 33 -24 46 -50 112
-56 145 -4 21 -11 40 -16 43 -5 3 -9 16 -9 29 0 13 -4 27 -10 30 -5 3 -10 17
-10 30 0 13 -4 27 -10 30 -5 3 -10 17 -10 31 0 13 -4 32 -9 42 -14 24 -41 146
-41 180 0 15 -4 32 -9 38 -5 5 -12 29 -15 54 -4 25 -11 74 -17 110 -5 36 -13
110 -17 165 -4 55 -14 111 -21 125 -17 29 -49 60 -65 60 -6 0 -23 7 -38 14
-15 8 -30 11 -33 6z"/>
<path d="M7930 17574 l0 -2136 853 5 c911 5 899 5 1097 58 241 64 427 225 514
441 59 148 61 177 61 723 0 455 -2 506 -18 565 -42 147 -127 285 -228 372
-110 94 -292 169 -447 184 -103 10 -104 20 -1 28 296 22 487 123 570 301 55
116 61 182 57 618 -4 365 -6 397 -26 470 -35 128 -78 203 -162 287 -88 89
-181 139 -324 175 -165 41 -254 45 -1121 45 l-825 0 0 -2136z m1285 1436 c44
-17 94 -68 121 -125 23 -49 24 -55 24 -350 0 -295 -1 -301 -24 -350 -47 -100
-113 -135 -257 -135 l-89 0 0 491 0 492 98 -6 c53 -3 111 -10 127 -17z m31
-1641 c34 -18 58 -39 79 -74 l30 -48 3 -451 c3 -503 3 -507 -64 -566 -54 -47
-99 -62 -206 -67 l-98 -6 0 623 0 622 103 -4 c86 -3 111 -8 153 -29z"/>
<path d="M17670 17576 l0 -2136 528 2 527 3 3 868 2 867 258 0 c389 1 514 18
668 91 258 122 403 353 444 708 8 62 10 253 8 541 -4 443 -4 445 -30 542 -32
117 -92 243 -153 320 -90 115 -241 217 -398 268 -161 53 -163 53 -1039 57
l-818 4 0 -2135z m1390 1390 c19 -10 47 -30 63 -44 52 -49 57 -91 57 -477 0
-393 -4 -427 -62 -482 -57 -53 -72 -57 -235 -61 l-153 -4 0 547 0 547 148 -4
c117 -3 154 -8 182 -22z"/>
<path d="M20320 17575 l0 -2135 528 2 527 3 3 2133 2 2132 -530 0 -530 0 0
-2135z"/>
<path d="M16110 19210 l0 -270 -110 0 -110 0 0 -285 0 -285 110 0 110 0 0
-1052 c1 -1074 6 -1292 35 -1433 45 -223 183 -359 414 -410 103 -22 328 -34
654 -35 l277 0 0 289 0 289 -109 4 c-123 3 -143 13 -161 77 -6 23 -10 439 -10
1154 l0 1117 140 0 140 0 0 285 0 285 -140 0 -140 0 0 270 0 270 -550 0 -550
0 0 -270z"/>
<path d="M11755 19023 c-275 -34 -480 -105 -634 -218 -177 -131 -293 -288
-360 -490 -60 -184 -61 -196 -61 -1116 0 -880 2 -923 46 -1078 48 -168 122
-297 242 -423 183 -192 410 -292 750 -328 139 -15 402 -8 524 15 384 70 655
289 788 635 60 158 72 243 77 563 l5 287 -516 0 -516 0 0 -362 c0 -332 -2
-366 -19 -403 -25 -54 -57 -81 -111 -96 -93 -25 -177 20 -199 105 -7 30 -11
207 -11 535 l0 491 685 0 685 0 0 426 c0 474 -8 569 -61 729 -69 207 -206 392
-383 517 -209 147 -455 219 -746 216 -85 0 -168 -3 -185 -5z m232 -648 c50
-21 72 -42 94 -90 17 -36 19 -69 19 -307 l0 -268 -170 0 -170 0 0 268 c1 279
6 318 47 364 41 46 115 60 180 33z"/>
<path d="M14255 19018 c-122 -13 -285 -53 -381 -92 -227 -92 -372 -235 -450
-442 -59 -158 -66 -212 -71 -566 l-5 -328 491 0 490 0 3 393 c3 363 4 395 22
431 27 53 68 76 137 76 74 0 115 -27 152 -100 l28 -55 -3 -295 c-3 -281 -4
-297 -25 -336 -56 -105 -180 -174 -618 -344 -345 -134 -468 -200 -561 -303
-108 -119 -116 -173 -112 -719 4 -421 4 -435 27 -503 77 -232 210 -377 405
-442 75 -25 94 -27 246 -27 152 0 172 2 255 27 130 40 240 98 339 178 l86 69
0 -100 0 -100 510 0 510 0 0 1363 c0 1460 0 1458 -51 1622 -50 163 -147 305
-265 386 -151 103 -389 182 -636 208 -114 13 -409 12 -523 -1z m410 -2854 c-8
-46 -61 -113 -103 -131 -56 -23 -135 -13 -172 22 -53 50 -60 93 -60 350 0 127
5 258 11 291 24 129 113 255 259 366 l65 50 3 -459 c1 -252 0 -472 -3 -489z"/>
<path d="M22536 19014 c-131 -17 -219 -38 -317 -74 -319 -116 -483 -317 -545
-667 -13 -77 -17 -160 -18 -388 l-1 -290 490 0 490 0 5 395 c5 356 7 398 23
428 25 47 72 72 132 72 69 0 113 -25 150 -84 l30 -49 3 -263 c4 -286 -4 -356
-43 -416 -55 -83 -193 -156 -593 -314 -361 -143 -445 -187 -548 -289 -71 -71
-83 -88 -102 -148 -36 -111 -44 -237 -40 -624 5 -407 11 -444 89 -601 89 -177
238 -291 428 -328 123 -24 306 -15 425 20 145 44 302 132 381 216 l30 31 5
-98 5 -98 513 -3 512 -2 0 1345 c0 1464 0 1469 -57 1649 -42 135 -87 212 -178
301 -63 63 -102 91 -180 132 -154 79 -332 130 -540 153 -124 14 -430 11 -549
-6z m442 -2489 l-3 -370 -27 -46 c-34 -58 -66 -79 -132 -86 -76 -8 -118 15
-151 80 -25 51 -25 52 -25 311 0 274 6 320 49 408 34 70 118 164 205 230 l81
61 3 -109 c2 -60 2 -275 0 -479z"/>
<path d="M24175 18918 c3 -13 137 -732 297 -1598 258 -1389 292 -1587 293
-1677 0 -110 -8 -132 -69 -177 -25 -19 -44 -21 -202 -24 l-174 -3 0 -255 0
-255 618 4 c433 3 633 8 672 16 220 49 401 244 484 521 65 219 65 217 296
1927 110 813 202 1493 205 1511 l6 32 -465 0 -464 0 -6 -47 c-3 -27 -44 -617
-91 -1313 -81 -1197 -93 -1349 -101 -1325 -3 9 -274 2652 -274 2675 0 7 -182
10 -515 10 l-515 0 5 -22z"/>
</g>
</svg>
