<?xml version="1.0" standalone="no"?>
<!DOCTYPE svg PUBLIC "-//W3C//DTD SVG 20010904//EN"
 "http://www.w3.org/TR/2001/REC-SVG-20010904/DTD/svg10.dtd">
<svg version="1.0" xmlns="http://www.w3.org/2000/svg"
 width="3464.000000pt" height="3464.000000pt" viewBox="0 0 3464.000000 3464.000000"
 preserveAspectRatio="xMidYMid meet">

<g transform="translate(0.000000,3464.000000) scale(0.100000,-0.100000)"
fill="#000000" stroke="none">
<path d="M28295 19920 c-3 -5 -18 -11 -34 -15 -16 -3 -39 -15 -51 -25 -53 -46
-50 140 -50 -3351 0 -2164 -3 -3240 -10 -3244 -6 -3 -16 0 -23 7 -75 75 -226
181 -317 224 -25 12 -60 29 -79 38 -19 9 -40 16 -48 16 -7 0 -13 5 -13 10 0 6
-11 10 -23 10 -13 0 -27 3 -31 7 -4 5 -31 14 -59 21 -29 7 -70 18 -92 23 -75
19 -140 31 -200 35 -33 3 -69 9 -80 15 -36 17 -539 -2 -559 -22 -6 -5 -31 -9
-57 -9 -26 0 -50 -4 -53 -9 -3 -4 -25 -11 -48 -14 -24 -4 -72 -13 -108 -22
-36 -9 -80 -19 -97 -22 -18 -3 -33 -9 -33 -14 0 -5 -10 -9 -23 -9 -13 0 -27
-4 -33 -8 -5 -4 -27 -14 -49 -21 -22 -7 -58 -19 -80 -28 -22 -8 -49 -19 -60
-23 -11 -4 -54 -24 -96 -44 -41 -20 -81 -36 -87 -36 -7 0 -12 -4 -12 -10 0 -5
-9 -10 -20 -10 -11 0 -20 -4 -20 -8 0 -5 -16 -14 -35 -22 -19 -8 -35 -17 -35
-20 0 -4 -12 -12 -27 -19 -36 -16 -187 -114 -191 -123 -2 -5 -10 -8 -18 -8 -8
0 -14 -3 -14 -7 0 -5 -17 -19 -38 -33 -20 -14 -42 -29 -48 -35 -6 -5 -36 -30
-65 -55 -72 -60 -244 -233 -294 -295 -22 -28 -45 -56 -52 -63 -48 -50 -178
-269 -218 -367 -32 -77 -38 -90 -45 -110 -4 -11 -12 -31 -18 -45 -5 -14 -17
-63 -26 -110 -10 -47 -21 -107 -27 -133 -12 -62 -12 -236 0 -290 5 -23 18 -81
28 -129 9 -49 21 -88 25 -88 5 0 8 -11 8 -25 0 -14 5 -25 10 -25 6 0 10 -6 10
-14 0 -14 85 -172 101 -186 3 -3 18 -23 35 -45 124 -168 377 -340 604 -410 30
-10 63 -21 72 -26 10 -5 29 -9 42 -9 14 0 28 -4 31 -10 3 -5 22 -10 41 -10 19
0 42 -4 52 -10 17 -9 314 -42 387 -42 75 -1 410 33 427 42 10 6 36 10 57 10
22 0 43 5 46 10 3 6 21 10 40 10 19 0 37 5 40 10 3 6 16 10 27 10 24 0 124 27
150 41 10 5 25 9 33 9 8 0 23 4 33 9 19 10 36 17 137 56 84 33 299 137 303
148 2 4 8 7 13 7 5 0 33 16 63 35 30 19 60 35 66 35 5 0 10 5 10 10 0 6 7 10
15 10 8 0 15 4 15 8 0 4 22 21 50 37 27 17 50 33 50 38 0 4 5 7 11 7 7 0 19 8
28 18 9 9 34 30 55 46 122 91 315 289 401 411 27 39 53 72 57 73 4 2 8 8 8 13
0 6 5 15 10 22 17 20 80 129 80 138 0 5 5 9 10 9 6 0 10 5 10 12 0 6 12 36 26
67 14 31 31 67 36 81 6 14 14 33 19 42 5 10 9 27 9 37 0 11 5 23 10 26 6 3 10
21 10 39 0 17 4 36 9 42 31 32 35 250 41 2408 3 1549 8 2160 16 2163 6 2 42
-58 80 -134 38 -76 71 -140 74 -143 11 -10 80 -132 80 -140 0 -5 4 -10 9 -12
4 -1 30 -37 56 -78 26 -41 51 -77 54 -80 4 -3 24 -30 46 -60 101 -141 197
-250 399 -454 92 -94 205 -211 250 -261 44 -49 88 -97 96 -105 9 -8 34 -37 55
-65 22 -27 47 -57 55 -65 8 -8 28 -33 45 -55 16 -22 32 -42 35 -45 4 -3 33
-43 65 -90 32 -47 62 -86 67 -88 4 -2 8 -7 8 -12 0 -8 62 -116 77 -135 9 -10
77 -150 95 -195 6 -14 14 -33 19 -42 5 -10 9 -27 9 -38 0 -11 4 -20 9 -20 9 0
13 -16 29 -125 20 -126 57 -165 157 -165 30 0 55 5 55 10 0 6 5 10 11 10 16 0
38 26 54 64 13 30 15 161 14 883 0 752 -2 859 -17 945 -10 53 -21 100 -25 104
-4 4 -7 18 -7 30 0 13 -4 26 -10 29 -5 3 -10 15 -10 26 0 19 -4 28 -28 76 -7
13 -12 27 -12 33 0 12 -67 152 -120 248 -38 71 -188 302 -228 352 -11 14 -60
75 -107 135 -108 136 -204 242 -411 450 -88 90 -187 194 -220 231 -32 38 -67
78 -77 89 -11 11 -40 49 -65 85 -26 36 -52 71 -59 78 -23 24 -163 238 -163
249 0 6 -3 13 -7 15 -9 4 -51 78 -95 168 -18 36 -35 67 -38 70 -9 8 -60 133
-60 148 0 6 -4 12 -10 12 -5 0 -10 7 -10 15 0 8 -4 23 -9 33 -24 46 -50 112
-56 145 -4 21 -11 40 -16 43 -5 3 -9 16 -9 29 0 13 -4 27 -10 30 -5 3 -10 17
-10 30 0 13 -4 27 -10 30 -5 3 -10 17 -10 31 0 13 -4 32 -9 42 -14 24 -41 146
-41 180 0 15 -4 32 -9 38 -5 5 -12 29 -15 54 -4 25 -11 74 -17 110 -5 36 -13
110 -17 165 -4 55 -14 111 -21 125 -17 29 -49 60 -65 60 -6 0 -23 7 -38 14
-15 8 -30 11 -33 6z"/>
</g>
</svg>
